<?xml version="1.0" encoding="UTF-8" standalone="no"?>
<!-- Created with Inkscape (http://www.inkscape.org/) -->

<svg
   width="32"
   height="32"
   viewBox="0 0 24 24"
   version="1.1"
   id="svg1"
   inkscape:export-filename="ビットマップ.svg"
   inkscape:export-xdpi="96"
   inkscape:export-ydpi="96"
   inkscape:version="1.3.2 (091e20e, 2023-11-25, custom)"
   sodipodi:docname="ShortSkip.svg"
   xmlns:inkscape="http://www.inkscape.org/namespaces/inkscape"
   xmlns:sodipodi="http://sodipodi.sourceforge.net/DTD/sodipodi-0.dtd"
   xmlns="http://www.w3.org/2000/svg"
   xmlns:svg="http://www.w3.org/2000/svg">
  <sodipodi:namedview
     id="namedview1"
     pagecolor="#ffffff"
     bordercolor="#000000"
     borderopacity="0.25"
     inkscape:showpageshadow="2"
     inkscape:pageopacity="0.0"
     inkscape:pagecheckerboard="0"
     inkscape:deskcolor="#d1d1d1"
     inkscape:document-units="mm"
     showgrid="true"
     inkscape:zoom="20.178174"
     inkscape:cx="12.21617"
     inkscape:cy="14.148951"
     inkscape:window-width="1920"
     inkscape:window-height="991"
     inkscape:window-x="-9"
     inkscape:window-y="-9"
     inkscape:window-maximized="1"
     inkscape:current-layer="layer1">
    <inkscape:grid
       id="grid1"
       units="px"
       originx="0"
       originy="0"
       spacingx="0.75"
       spacingy="0.75"
       empcolor="#0099e5"
       empopacity="0.30196078"
       color="#0099e5"
       opacity="0.14901961"
       empspacing="5"
       dotted="false"
       gridanglex="30"
       gridanglez="30"
       visible="true" />
  </sodipodi:namedview>
  <defs
     id="defs1" />
  <g
     inkscape:label="Layer 1"
     inkscape:groupmode="layer"
     id="layer1">
    <path
       id="path1"
       style="fill:#0ff06c;fill-opacity:0.77987403;stroke-width:0.751177;paint-order:stroke markers fill"
       d="M 12,21 C 9.7038992,21 7.2596273,19.987549 5.636039,18.363961 4.0124507,16.740373 3,14.485281 3,12 3,7.0294373 7.0294373,3 12,3 c 4.970563,0 9,4.0294373 9,9 0,2.485281 -1.007359,4.735281 -2.636039,6.363961 C 16.735281,19.992641 14.296101,21 12,21"
       sodipodi:nodetypes="csssssc" />
    <path
       id="path1-5"
       style="fill:#f6fef9;fill-opacity:0.77987403;stroke-width:0.50173229;paint-order:stroke markers fill;stroke-dasharray:none"
       d="m 18,12 c 0,1.656854 -0.671573,3.156854 -1.757359,4.242641 C 15.156854,17.328427 13.656854,18 12,18 10.343146,18 8.8397515,17.325033 7.7573593,16.242641 6.6749671,15.160249 6,13.656854 6,12 6,8.6862915 8.6862915,6 12,6 c 3.313708,0 6,2.6862915 6,6 z"
       sodipodi:nodetypes="sssssss" />
    <path
       sodipodi:type="star"
       style="fill:#a3baf5;fill-opacity:0.779874;stroke-width:0.501732;stroke-dasharray:none;paint-order:stroke markers fill"
       id="path3"
       inkscape:flatsided="true"
       sodipodi:sides="3"
       sodipodi:cx="12.75"
       sodipodi:cy="21.75"
       sodipodi:r1="0.75"
       sodipodi:r2="0.375"
       sodipodi:arg1="-1.5707963"
       sodipodi:arg2="-0.52359878"
       inkscape:rounded="0"
       inkscape:randomized="0"
       d="m 12.75,21 0.649519,1.125 -1.299038,0 z"
       transform="matrix(5.9612122,1.597302,-1.597302,5.9612122,-32.877671,-131.1355)"
       inkscape:transform-center-x="0.59898925"
       inkscape:transform-center-y="-0.5990006" />
  </g>
  <g
     inkscape:groupmode="layer"
     id="layer2"
     inkscape:label="Layer 2">
    <path
       id="path2"
       style="fill:#a3baf5;fill-opacity:0.779874;stroke-width:0.501732;stroke-dasharray:none;paint-order:stroke markers fill"
       d="M 11.358398 3.0234375 A 9 9 0 0 0 5.6367188 5.6367188 A 9 9 0 0 0 5.6367188 18.363281 L 7.7578125 16.242188 A 6 6.0000005 0 0 1 7.7578125 7.7578125 A 6 6.0000005 0 0 1 16.242188 7.7578125 A 6 6.0000005 0 0 1 16.242188 16.242188 L 18.363281 18.363281 A 9 9 0 0 0 18.363281 5.6367188 A 9 9 0 0 0 11.358398 3.0234375 z " />
  </g>
</svg>
